<?xml version="1.0" encoding="utf-8"?>
<!-- Generator: Adobe Illustrator 28.3.0, SVG Export Plug-In . SVG Version: 6.00 Build 0)  -->
<svg version="1.1" id="Capa_1" xmlns="http://www.w3.org/2000/svg" xmlns:xlink="http://www.w3.org/1999/xlink" x="0px" y="0px"
	 viewBox="0 0 1200 1200" style="enable-background:new 0 0 1200 1200;" xml:space="preserve">
<style type="text/css">
	.st0{fill:#FFFFFF;}
	.st1{fill:#011B2B;}
	.st2{fill:#0047BB;}
</style>
<g>
	<path class="st2" d="M422.8,954.8V1132c0,25.6,20.8,46.4,46.4,46.4h254.4c45.4,0,63.8-58.5,26.5-84.5L495.8,916.7
		C465,895.3,422.8,917.3,422.8,954.8z"/>
	<path class="st2" d="M638.6,613L638.6,613c-47.4-30.1-59.9-93.7-27.5-139.5L892.9,94.8c21.7-30.7-0.2-73.2-37.9-73.2H469.2
		c-25.6,0-46.4,20.8-46.4,46.4v548c0,15,7.3,29.1,19.5,37.8l662.8,472.4c30.7,21.9,73.3-0.1,73.3-37.8V169.8
		c0-45.5-58.6-63.8-84.5-26.5l-322,442.8C741.9,629.4,683.1,641.2,638.6,613z"/>
	<path class="st2" d="M217.9,21.6h-166c-16.7,0-30.3,13.6-30.3,30.3v1096.2c0,16.7,13.6,30.3,30.3,30.3h166
		c16.7,0,30.3-13.6,30.3-30.3V51.9C248.2,35.2,234.7,21.6,217.9,21.6z"/>
</g>
</svg>
