<?xml version="1.0" encoding="utf-8"?>
<!-- Generator: Adobe Illustrator 28.3.0, SVG Export Plug-In . SVG Version: 6.00 Build 0)  -->
<svg version="1.1" id="Capa_1" xmlns="http://www.w3.org/2000/svg" xmlns:xlink="http://www.w3.org/1999/xlink" x="0px" y="0px"
	 viewBox="0 0 1200 265.2" style="enable-background:new 0 0 1200 265.2;" xml:space="preserve">
<style type="text/css">
	.st0{fill:#FFFFFF;}
	.st1{fill:#011B2B;}
	.st2{fill:#0047BB;}
</style>
<g>
	<g>
		<path class="st2" d="M347.1,147.7v33.1h-20.1V64.3h20.1v52.6l45.6-52.6h0.8h22.3h3.5l-42.4,49.1l42.4,67.4h-23.8l-32.5-51.6
			L347.1,147.7z"/>
		<path class="st2" d="M492.2,91.8h19.3v44.6c0,12.3-4.1,22.8-12.3,31.5c-8.2,8.7-18.1,13.1-29.6,13.1c-11.5,0-21.4-4.4-29.6-13.1
			c-8.2-8.7-12.3-19.2-12.3-31.5V91.9H447v44.4c0,7,2.2,12.9,6.7,17.8c4.4,4.9,9.8,7.3,16,7.3c6.2,0,11.5-2.4,16-7.3
			c4.4-4.9,6.7-10.8,6.7-17.8V91.8z"/>
		<path class="st2" d="M535.8,91.6h44.8v19.5H555v69.7h-19.1V91.6z"/>
		<path class="st2" d="M610.4,86.8c-2.1,0-4-0.5-5.7-1.5c-1.7-1-3.1-2.4-4.1-4.1c-1-1.7-1.5-3.6-1.5-5.6c0-3.1,1.1-5.8,3.3-8
			c2.2-2.2,4.9-3.3,7.9-3.3c3.1,0,5.7,1.1,7.9,3.3c2.2,2.2,3.3,4.9,3.3,7.9c0,3.1-1.1,5.7-3.3,7.9C616,85.7,613.4,86.8,610.4,86.8z
			 M619.9,180.8h-19.3V91.6h19.3V180.8z"/>
		<path class="st2" d="M654.9,104.8c8.2-8.7,18.1-13,29.6-13c11.5,0,21.4,4.3,29.6,13c8.2,8.7,12.3,19.1,12.3,31.5
			c0,12.3-4.1,22.8-12.3,31.5c-8.2,8.7-18.1,13-29.6,13c-11.5,0-21.4-4.3-29.6-13c-8.2-8.7-12.3-19.1-12.3-31.5
			C642.5,123.9,646.7,113.4,654.9,104.8z M668.6,154c4.4,4.9,9.7,7.4,15.9,7.4c6.2,0,11.5-2.5,15.9-7.4c4.4-4.9,6.6-10.8,6.6-17.7
			c0-6.9-2.2-12.8-6.6-17.7c-4.4-4.9-9.7-7.4-15.9-7.4c-6.2,0-11.5,2.5-15.9,7.4c-4.4,4.9-6.6,10.8-6.6,17.7
			C662,143.1,664.2,149,668.6,154z"/>
		<path class="st2" d="M773.1,161.5h7.7V181h-7.7c-6.9,0-12.8-2.4-17.6-7.3c-4.9-4.9-7.3-10.8-7.3-17.6V73.1h19.5v23.5h12.7v19.5
			h-12.7v40c0,1,0.2,1.9,0.7,2.7c0.5,0.8,1.2,1.5,2,2C771.1,161.3,772.1,161.5,773.1,161.5z"/>
		<path class="st2" d="M813.8,86.8c-2.1,0-4-0.5-5.7-1.5c-1.7-1-3.1-2.4-4.1-4.1c-1-1.7-1.5-3.6-1.5-5.6c0-3.1,1.1-5.8,3.3-8
			c2.2-2.2,4.9-3.3,7.9-3.3c3.1,0,5.7,1.1,7.9,3.3c2.2,2.2,3.3,4.9,3.3,7.9c0,3.1-1.1,5.7-3.3,7.9C819.4,85.7,816.8,86.8,813.8,86.8
			z M823.3,180.8H804V91.6h19.3V180.8z"/>
		<path class="st2" d="M887.9,162.5c3.1,0,6-0.7,8.8-2c2.8-1.3,5.2-3.2,7.2-5.5c2.1-2.3,3.6-5,4.7-8h20.1c-2.1,10.1-7,18.4-14.6,25
			c-7.7,6.6-16.4,9.8-26.3,9.8c-11.5,0-21.4-4.3-29.6-13c-8.2-8.7-12.3-19.1-12.3-31.5c0-12.3,4.1-22.8,12.3-31.5
			c8.2-8.7,18.1-13,29.6-13c9.9,0,18.6,3.3,26.3,9.8c7.7,6.5,12.5,14.9,14.6,25h-20.1c-1.1-3-2.7-5.7-4.7-8
			c-2.1-2.3-4.5-4.2-7.2-5.5c-2.8-1.3-5.7-2-8.8-2c-4.1,0-7.9,1.1-11.3,3.4c-3.4,2.3-6.2,5.3-8.2,9.2c-2,3.8-3,8-3,12.6
			c0,4.6,1,8.7,3,12.6c2,3.8,4.7,6.9,8.2,9.2C880,161.4,883.8,162.5,887.9,162.5z"/>
		<path class="st2" d="M1036.9,91.6l-40.1,38.3l34.8,50.9h-23.6l-25.3-37.5l-12.3,11.5v26h-19.1V64.3h19.1v66.6l42.3-39.5
			L1036.9,91.6z"/>
		<path class="st2" d="M1126,142.9h-63.6c1.2,5.8,3.9,10.5,8.1,14.2c4.2,3.7,8.9,5.6,14.2,5.6c4.1,0,7.8-1.1,11.2-3.2
			c3.4-2.2,6.1-5.1,8.2-8.7h20.1c-2.8,9-7.8,16.3-15,22c-7.2,5.7-15.4,8.5-24.6,8.5c-11.4,0-21.2-4.3-29.3-12.9
			c-8.1-8.6-12.2-19-12.2-31.1c0-12.2,4-22.5,12.2-31.1c8.1-8.6,17.9-12.9,29.3-12.9c9.2,0,17.4,2.8,24.6,8.5c7.2,5.7,12.2,13,15,22
			c1.3,4.3,2,8.8,2,13.5C1126.3,139.1,1126.2,141,1126,142.9z M1065.4,123.6h38.8c-1.3-2.4-3-4.5-5-6.3c-2-1.8-4.2-3.2-6.7-4.2
			c-2.4-1-5.1-1.5-7.8-1.5c-4,0-7.7,1.1-11.1,3.2C1070.2,117,1067.5,119.9,1065.4,123.6z"/>
		<path class="st2" d="M1172.7,161.5h7.7V181h-7.7c-6.9,0-12.8-2.4-17.6-7.3c-4.9-4.9-7.3-10.8-7.3-17.6V73.1h19.5v23.5h12.7v19.5
			h-12.7v40c0,1,0.2,1.9,0.7,2.7c0.5,0.8,1.2,1.5,2,2C1170.8,161.3,1171.7,161.5,1172.7,161.5z"/>
	</g>
	<g>
		<path class="st2" d="M101.5,205v36.2c0,5.2,4.2,9.5,9.5,9.5H163c9.3,0,13-11.9,5.4-17.3l-51.9-36.2
			C110.1,192.9,101.5,197.4,101.5,205z"/>
		<path class="st2" d="M145.6,135.3L145.6,135.3c-9.7-6.1-12.2-19.1-5.6-28.5l57.5-77.3c4.4-6.3,0-14.9-7.7-14.9H111
			c-5.2,0-9.5,4.2-9.5,9.5v111.9c0,3.1,1.5,5.9,4,7.7L240.8,240c6.3,4.5,15,0,15-7.7V44.8c0-9.3-12-13-17.3-5.4l-65.7,90.4
			C166.7,138.6,154.7,141,145.6,135.3z"/>
		<path class="st2" d="M59.8,14.5H25.7c-3.4,0-6.1,2.7-6.1,6.1v224c0,3.4,2.7,6.1,6.1,6.1h34.1c3.4,0,6.1-2.7,6.1-6.1v-224
			C65.9,17.2,63.1,14.5,59.8,14.5z"/>
	</g>
</g>
</svg>
