<?xml version="1.0" encoding="utf-8"?>
<!-- Generator: Adobe Illustrator 28.3.0, SVG Export Plug-In . SVG Version: 6.00 Build 0)  -->
<svg version="1.1" id="Capa_1" xmlns="http://www.w3.org/2000/svg" xmlns:xlink="http://www.w3.org/1999/xlink" x="0px" y="0px"
	 viewBox="0 0 400 400" style="enable-background:new 0 0 400 400;" xml:space="preserve">
<style type="text/css">
	.st0{fill:#011B2B;}
	.st1{fill:#0047BB;}
</style>
<g>
	<path class="st0" d="M324.5,400.8H74.9c-41.7,0-75.5-33.8-75.5-75.5V75.7C-0.6,34,33.2,0.2,74.9,0.2h249.6
		C366.2,0.2,400,34,400,75.7v249.6C400,367,366.2,400.8,324.5,400.8z"/>
	<g>
		<path class="st1" d="M152.8,294.4v46.9c0,6.8,5.5,12.3,12.3,12.3h67.3c12,0,16.9-15.5,7-22.4l-67.3-46.9
			C164,278.6,152.8,284.5,152.8,294.4z"/>
		<path class="st1" d="M209.9,203.9L209.9,203.9c-12.5-8-15.9-24.8-7.3-36.9l74.6-100.2c5.8-8.1-0.1-19.4-10-19.4H165.1
			c-6.8,0-12.3,5.5-12.3,12.3v145c0,4,1.9,7.7,5.2,10l175.4,125c8.1,5.8,19.4,0,19.4-10V86.6c0-12-15.5-16.9-22.4-7l-85.2,117.2
			C237.3,208.3,221.7,211.4,209.9,203.9z"/>
		<path class="st1" d="M103.1,47.4H50.1c-1.9,0-3.5,1.5-3.5,3.5v299.3c0,1.9,1.5,3.5,3.5,3.5h53.1c1.9,0,3.5-1.5,3.5-3.5V50.8
			C106.6,48.9,105,47.4,103.1,47.4z"/>
	</g>
</g>
</svg>
