<svg width="720" height="160" viewBox="0 0 720 160" fill="none" xmlns="http://www.w3.org/2000/svg">
  <defs>
    <linearGradient id="ticketGradient" x1="18" y1="12" x2="160" y2="120" gradientUnits="userSpaceOnUse">
      <stop stop-color="#6D28D9"/>
      <stop offset="1" stop-color="#A855F7"/>
    </linearGradient>
    <linearGradient id="textGradient" x1="190" y1="28" x2="676" y2="114" gradientUnits="userSpaceOnUse">
      <stop offset="0.08" stop-color="#062B77"/>
      <stop offset="0.52" stop-color="#0B2A78"/>
      <stop offset="0.72" stop-color="#9C2BEA"/>
      <stop offset="1" stop-color="#7E22CE"/>
    </linearGradient>
  </defs>

  <g transform="translate(8 16)">
    <g transform="rotate(-20 66 58)">
      <path d="M6 26C13 26 18 20.6 18 14C18 13.3 17.9 12.7 17.8 12H126.2C126.1 12.7 126 13.3 126 14C126 20.6 131 26 138 26V90C131 90 126 95.4 126 102C126 102.7 126.1 103.3 126.2 104H17.8C17.9 103.3 18 102.7 18 102C18 95.4 13 90 6 90V26Z" fill="url(#ticketGradient)"/>
      <circle cx="34" cy="36" r="4" fill="white"/>
      <circle cx="34" cy="54" r="4" fill="white"/>
      <circle cx="34" cy="72" r="4" fill="white"/>
      <path d="M80 78C59.6 78 43 61.4 43 41C43 20.6 59.6 4 80 4C98 4 113.1 16.9 116.3 34.1L101.8 37.5C99.8 26.5 90.1 18 78.7 18C65.5 18 54.7 28.8 54.7 42C54.7 55.2 65.5 66 78.7 66C89.6 66 99 58.7 101.6 48.1L116 51.8C112 67.3 97.9 78 80 78Z" fill="white"/>
    </g>
    <rect x="112" y="100" width="18" height="54" rx="9" transform="rotate(-42 112 100)" fill="#082C78"/>
  </g>

  <text x="178" y="103" fill="url(#textGradient)" font-family="Poppins, Satoshi, Inter, Arial, sans-serif" font-size="104" font-weight="800" letter-spacing="-2.4">Curioticket</text>
</svg>
