<svg xmlns="http://www.w3.org/2000/svg" viewBox="0 0 3072 1024" role="img" aria-labelledby="title desc">
  <title id="title">Traveler in an airport terminal</title>
  <desc id="desc">A traveler with luggage looks through airport terminal windows toward parked aircraft under a blue sky, with a dark blue overlay on the left.</desc>
  <defs>
    <linearGradient id="sky" x1="0" y1="0" x2="1" y2="1"><stop offset="0" stop-color="#53a9dc"/><stop offset="0.55" stop-color="#a9d9ee"/><stop offset="1" stop-color="#617f93"/></linearGradient>
    <linearGradient id="floor" x1="0" y1="0" x2="1" y2="1"><stop offset="0" stop-color="#3e7692"/><stop offset="1" stop-color="#102b42"/></linearGradient>
    <linearGradient id="left" x1="0" y1="0" x2="1" y2="0"><stop offset="0" stop-color="#031a32" stop-opacity=".98"/><stop offset=".55" stop-color="#062744" stop-opacity=".82"/><stop offset="1" stop-color="#062744" stop-opacity="0"/></linearGradient>
    <filter id="soften"><feGaussianBlur stdDeviation="2"/></filter>
  </defs>
  <rect width="3072" height="1024" fill="#061d34"/>
  <rect x="980" width="2092" height="670" fill="url(#sky)"/>
  <g opacity=".9"><ellipse cx="2000" cy="210" rx="120" ry="38" fill="#eef6fa"/><ellipse cx="2150" cy="190" rx="150" ry="45" fill="#e7f1f7"/><ellipse cx="2385" cy="235" rx="160" ry="48" fill="#dfeaf2"/><ellipse cx="2650" cy="180" rx="170" ry="55" fill="#f0f5f8"/><ellipse cx="2830" cy="245" rx="145" ry="42" fill="#dce8f0"/></g>
  <rect y="640" width="3072" height="384" fill="url(#floor)"/>
  <g opacity=".32" stroke="#a8d1e1" stroke-width="3"><path d="M980 670L500 1024M1230 670L980 1024M1480 670L1460 1024M1730 670L1940 1024M1980 670L2420 1024M2230 670L2920 1024"/><path d="M0 735L3072 690M0 820L3072 790M0 930L3072 900"/></g>
  <g stroke="#102c44" stroke-width="7" opacity=".94"><path d="M1375 0v690M1550 0v680M1725 0v672M1905 0v665M2085 0v660M2265 0v655M2445 0v650M2625 0v645M2805 0v640M2985 0v635"/><path d="M980 112h2092M980 240h2092M980 372h2092M980 505h2092M980 638h2092"/></g>
  <g opacity=".72"><rect x="2120" y="540" width="335" height="50" rx="25" fill="#d4e5ee" stroke="#607b8a"/><polygon points="2310,552 2515,500 2480,548" fill="#c8dce8"/><polygon points="2350,570 2530,620 2460,602" fill="#a9c8d9"/><polygon points="2410,535 2460,405 2485,540" fill="#9ebfd3"/></g>
  <g opacity=".55" transform="translate(1620 560) scale(.7)"><rect width="300" height="42" rx="21" fill="#d4e5ee" stroke="#607b8a"/><polygon points="170,11 335,-35 310,12" fill="#c8dce8"/><polygon points="210,30 342,72 295,60" fill="#a9c8d9"/></g>
  <g><ellipse cx="2245" cy="292" rx="28" ry="32" fill="#231e1c"/><rect x="2210" y="320" width="72" height="210" rx="26" fill="#0a263e"/><path d="M2214 338l-54 18-22 190h52zM2280 338l54 24 22 184h-54z" fill="#0d3657"/><rect x="2188" y="354" width="110" height="180" rx="28" fill="#071a2b"/><path d="M2220 532h36l-18 360h-58zM2265 532h35l65 360h-58z" fill="#4d4d48"/><rect x="2170" y="885" width="75" height="24" rx="10" fill="#e8e8df"/><rect x="2286" y="885" width="75" height="24" rx="10" fill="#e8e8df"/></g>
  <g><rect x="2365" y="690" width="120" height="238" rx="20" fill="#173958" stroke="#081622" stroke-width="6"/><path d="M2395 712v200M2425 707v210M2455 712v200" stroke="#376684" stroke-width="5"/><path d="M2428 690v-70h35v70" fill="none" stroke="#152c40" stroke-width="7"/><circle cx="2390" cy="933" r="13" fill="#050b11"/><circle cx="2460" cy="933" r="13" fill="#050b11"/></g>
  <rect width="3072" height="1024" fill="url(#left)"/>
  <rect width="3072" height="1024" fill="url(#left)" opacity=".45" filter="url(#soften)"/>
</svg>
